<svg width="34" height="34" viewBox="0 0 34 34" fill="none" xmlns="http://www.w3.org/2000/svg">
<path d="M16.9997 2.8335V5.66683M12.7497 17.0002V29.7502M21.2497 17.0002V29.7502M7.08301 22.6668L12.7497 19.8335M21.2497 19.8335L26.9163 22.6668M12.7497 25.5002H21.2497M14.1663 11.3335V11.3477M19.833 11.3335V11.3477M8.49967 8.50016C8.49967 7.74872 8.79819 7.02805 9.32954 6.49669C9.86089 5.96534 10.5816 5.66683 11.333 5.66683H22.6663C23.4178 5.66683 24.1385 5.96534 24.6698 6.49669C25.2012 7.02805 25.4997 7.74872 25.4997 8.50016V14.1668C25.4997 14.9183 25.2012 15.6389 24.6698 16.1703C24.1385 16.7017 23.4178 17.0002 22.6663 17.0002H11.333C10.5816 17.0002 9.86089 16.7017 9.32954 16.1703C8.79819 15.6389 8.49967 14.9183 8.49967 14.1668V8.50016Z" stroke="#F35400" stroke-width="2" stroke-linecap="round" stroke-linejoin="round"/>
</svg>
