<svg width="30" height="30" viewBox="0 0 30 30" fill="none" xmlns="http://www.w3.org/2000/svg">
<path d="M16.7871 12.334C16.1104 12.334 15.5859 12.8584 15.5859 13.5059C15.5859 14.1533 16.1104 14.6777 16.7871 14.6777C17.4053 14.6777 17.9297 14.1533 17.9297 13.5059C17.9297 12.8584 17.4053 12.334 16.7871 12.334ZM8.58398 12.334C7.90723 12.334 7.38281 12.8584 7.38281 13.5059C7.38281 14.1533 7.90723 14.6777 8.58398 14.6777C9.20215 14.6777 9.72656 14.1533 9.72656 13.5059C9.72656 12.8584 9.20215 12.334 8.58398 12.334Z" fill="#001D3D"/>
<path d="M26.1915 10.1074C24.7823 8.1738 22.8136 6.8818 20.6544 6.2988V6.30173C20.1534 5.74509 19.588 5.23239 18.9552 4.77536C14.1593 1.28903 7.42686 2.35251 3.92588 7.14841C1.10459 11.0449 1.22471 16.2861 4.10166 20.0097L4.1251 23.8945C4.1251 23.9882 4.13975 24.082 4.16904 24.1699C4.32432 24.665 4.85166 24.9375 5.34385 24.7822L9.05283 23.6132C10.0343 23.9619 11.0479 24.1611 12.0558 24.2168L12.0411 24.2285C14.6515 26.1299 18.0733 26.7011 21.211 25.664L24.9347 26.8769C25.0284 26.9062 25.1251 26.9238 25.2247 26.9238C25.7433 26.9238 26.1622 26.5049 26.1622 25.9863V22.0605C28.7433 18.5566 28.8106 13.7138 26.1915 10.1074ZM9.46299 21.5332L9.11143 21.3867L6.21103 22.2949L6.18174 19.248L5.94736 18.9843C3.46885 15.9609 3.30478 11.6045 5.6251 8.40817C8.44932 4.53512 13.8634 3.67966 17.7247 6.47458C21.5978 9.29001 22.4562 14.6953 19.6583 18.5449C17.3116 21.7646 13.1104 22.9541 9.46299 21.5332ZM24.2579 21.0351L24.0235 21.3281L24.0528 24.375L21.1817 23.4082L20.8302 23.5547C19.1896 24.164 17.4405 24.2138 15.8204 23.7597L15.8146 23.7568C17.9796 23.0918 19.9425 21.7441 21.3575 19.8047C23.5958 16.7197 23.9591 12.8437 22.6583 9.53903L22.6759 9.55075C23.3497 10.0341 23.9679 10.6377 24.4923 11.3672C26.6192 14.2851 26.4991 18.2578 24.2579 21.0351Z" fill="#001D3D"/>
<path d="M12.6855 12.334C12.0088 12.334 11.4844 12.8584 11.4844 13.5059C11.4844 14.1533 12.0088 14.6777 12.6855 14.6777C13.3037 14.6777 13.8281 14.1533 13.8281 13.5059C13.8281 12.8584 13.3037 12.334 12.6855 12.334Z" fill="#001D3D"/>
</svg>
