<svg width="30" height="30" viewBox="0 0 30 30" fill="none" xmlns="http://www.w3.org/2000/svg">
<path d="M15 3.28125C21.4611 3.28125 26.7188 8.53888 26.7188 15C26.7188 21.4611 21.4611 26.7188 15 26.7188C8.53888 26.7188 3.28125 21.4611 3.28125 15C3.28125 8.53888 8.53888 3.28125 15 3.28125ZM15 4.21875C9.03455 4.21875 4.21875 9.03455 4.21875 15C4.21875 20.9654 9.03455 25.7812 15 25.7812C20.9654 25.7812 25.7812 20.9654 25.7812 15C25.7812 9.03455 20.9654 4.21875 15 4.21875ZM15.4688 9.84375V14.5312H20.1562V15.4688H15.4688V20.1562H14.5312V15.4688H9.84375V14.5312H14.5312V9.84375H15.4688Z" fill="black" stroke="#F35400" stroke-width="0.9375"/>
</svg>
