<svg width="31" height="30" viewBox="0 0 31 30" fill="none" xmlns="http://www.w3.org/2000/svg">
<path d="M24.6475 16.875H19.8038C19.1617 16.8743 18.5456 17.1283 18.0905 17.5813C17.6354 18.0342 17.3786 18.6492 17.3763 19.2913V24.135C17.3759 24.4539 17.4385 24.7697 17.5604 25.0644C17.6822 25.359 17.861 25.6268 18.0865 25.8522C18.312 26.0777 18.5797 26.2565 18.8744 26.3784C19.1691 26.5003 19.4849 26.5628 19.8038 26.5625H24.6475C25.2894 26.5599 25.904 26.3029 26.3567 25.8478C26.8093 25.3928 27.0632 24.7769 27.0625 24.135V19.2913C27.0628 18.974 27.0006 18.6598 26.8793 18.3667C26.7581 18.0735 26.5802 17.8072 26.3559 17.5829C26.1316 17.3585 25.8652 17.1807 25.5721 17.0594C25.2789 16.9382 24.9647 16.8759 24.6475 16.8763M11.1963 16.875H6.3525C5.71074 16.8786 5.09651 17.1361 4.644 17.5912C4.19149 18.0463 3.93749 18.662 3.9375 19.3038V24.1475C3.93717 24.4647 3.99941 24.7789 4.12066 25.0721C4.24191 25.3652 4.41979 25.6316 4.6441 25.8559C4.86842 26.0802 5.13478 26.2581 5.42793 26.3793C5.72108 26.5006 6.03527 26.5628 6.3525 26.5625H11.1963C11.8381 26.5632 12.454 26.3093 12.9091 25.8567C13.3641 25.404 13.6211 24.7894 13.6238 24.1475V19.3038C13.6241 18.9849 13.5615 18.6691 13.4396 18.3744C13.3178 18.0797 13.139 17.812 12.9135 17.5865C12.688 17.361 12.4203 17.1822 12.1256 17.0604C11.8309 16.9385 11.5151 16.8759 11.1963 16.8763M11.1963 3.4375H6.3525C6.03527 3.43717 5.72108 3.49941 5.42793 3.62066C5.13478 3.74191 4.86842 3.91979 4.6441 4.1441C4.41979 4.36842 4.24191 4.63478 4.12066 4.92793C3.99941 5.22108 3.93717 5.53527 3.9375 5.8525V10.6963C3.93683 11.3381 4.19066 11.954 4.64335 12.4091C5.09603 12.8641 5.71065 13.1211 6.3525 13.1238H11.1963C11.5151 13.1241 11.8309 13.0615 12.1256 12.9396C12.4203 12.8178 12.688 12.639 12.9135 12.4135C13.139 12.188 13.3178 11.9203 13.4396 11.6256C13.5615 11.3309 13.6241 11.0151 13.6238 10.6963V5.8525C13.6211 5.21065 13.3641 4.59603 12.9091 4.14335C12.454 3.69066 11.8381 3.43683 11.1963 3.4375ZM24.6475 3.4375H19.8038C19.1619 3.43683 18.546 3.69066 18.0909 4.14335C17.6359 4.59603 17.3789 5.21065 17.3763 5.8525V10.6963C17.3766 11.34 17.6324 11.9572 18.0876 12.4124C18.5428 12.8676 19.16 13.1234 19.8038 13.1238H24.6475C25.2894 13.1211 25.904 12.8641 26.3567 12.4091C26.8093 11.954 27.0632 11.3381 27.0625 10.6963V5.8525C27.0628 5.53527 27.0006 5.22108 26.8793 4.92793C26.7581 4.63478 26.5802 4.36842 26.3559 4.1441C26.1316 3.91979 25.8652 3.74191 25.5721 3.62066C25.2789 3.49941 24.9647 3.43717 24.6475 3.4375Z" stroke="#F35400" stroke-width="1.875" stroke-linecap="round" stroke-linejoin="round"/>
</svg>
