<svg xmlns="http://www.w3.org/2000/svg" width="250" height="48" viewBox="0 0 250 48" fill="none">
<rect width="167.526" height="48" rx="24" fill="#E4E4E4"/>
<path d="M50.4747 22.692H53.0827V24.452H50.4747V22.692ZM48.8747 17.076H51.0187V31.892H48.8747V17.076ZM39.8667 18.5H41.9787V27.716H39.8667V18.5ZM39.8667 26.516H41.1307C42.1867 26.516 43.2854 26.4733 44.4267 26.388C45.568 26.3027 46.736 26.1427 47.9307 25.908L48.1547 27.636C46.9174 27.892 45.712 28.068 44.5387 28.164C43.3654 28.2493 42.2294 28.292 41.1307 28.292H39.8667V26.516ZM58.9054 18.084C59.6734 18.084 60.3668 18.2387 60.9854 18.548C61.6041 18.8573 62.0894 19.2893 62.4414 19.844C62.7934 20.388 62.9694 21.0173 62.9694 21.732C62.9694 22.436 62.7934 23.0653 62.4414 23.62C62.0894 24.1747 61.6041 24.6067 60.9854 24.916C60.3668 25.2253 59.6734 25.38 58.9054 25.38C58.1268 25.38 57.4281 25.2253 56.8094 24.916C56.1908 24.6067 55.7001 24.1747 55.3374 23.62C54.9854 23.0653 54.8094 22.436 54.8094 21.732C54.8094 21.0173 54.9854 20.388 55.3374 19.844C55.7001 19.2893 56.1908 18.8573 56.8094 18.548C57.4281 18.2387 58.1268 18.084 58.9054 18.084ZM58.9054 19.908C58.5214 19.908 58.1748 19.9827 57.8654 20.132C57.5668 20.2707 57.3268 20.4787 57.1454 20.756C56.9748 21.0227 56.8894 21.348 56.8894 21.732C56.8894 22.116 56.9748 22.4467 57.1454 22.724C57.3268 23.0013 57.5668 23.2147 57.8654 23.364C58.1748 23.5027 58.5214 23.572 58.9054 23.572C59.2788 23.572 59.6148 23.5027 59.9134 23.364C60.2121 23.2147 60.4468 23.0013 60.6174 22.724C60.7988 22.4467 60.8894 22.116 60.8894 21.732C60.8894 21.348 60.7988 21.0227 60.6174 20.756C60.4468 20.4787 60.2121 20.2707 59.9134 20.132C59.6148 19.9827 59.2788 19.908 58.9054 19.908ZM64.3614 17.076H66.4894V31.94H64.3614V17.076ZM54.4414 28.948L54.2014 27.22C55.0654 27.22 56.0201 27.2147 57.0654 27.204C58.1214 27.1827 59.2041 27.14 60.3134 27.076C61.4334 27.0013 62.5161 26.8893 63.5614 26.74L63.7054 28.276C62.6388 28.4893 61.5561 28.644 60.4574 28.74C59.3588 28.8253 58.2974 28.884 57.2734 28.916C56.2494 28.9373 55.3054 28.948 54.4414 28.948ZM80.5132 20.676H83.3292V22.404H80.5132V20.676ZM82.7372 17.108H84.8812V25.908H82.7372V17.108ZM79.8572 26.228C80.9025 26.228 81.8039 26.34 82.5612 26.564C83.3185 26.788 83.8999 27.1133 84.3052 27.54C84.7212 27.9667 84.9292 28.4787 84.9292 29.076C84.9292 29.9933 84.4759 30.6973 83.5692 31.188C82.6625 31.6893 81.4252 31.94 79.8572 31.94C78.2892 31.94 77.0519 31.6893 76.1452 31.188C75.2385 30.6973 74.7852 29.9933 74.7852 29.076C74.7852 28.4787 74.9879 27.9667 75.3932 27.54C75.8092 27.1133 76.3959 26.788 77.1532 26.564C77.9105 26.34 78.8119 26.228 79.8572 26.228ZM79.8572 27.844C79.2172 27.844 78.6785 27.892 78.2412 27.988C77.8039 28.0733 77.4679 28.2067 77.2332 28.388C77.0092 28.5693 76.8972 28.7987 76.8972 29.076C76.8972 29.3533 77.0092 29.588 77.2332 29.78C77.4679 29.9613 77.8039 30.1 78.2412 30.196C78.6785 30.2813 79.2172 30.324 79.8572 30.324C80.4972 30.324 81.0359 30.2813 81.4732 30.196C81.9105 30.1 82.2412 29.9613 82.4652 29.78C82.6892 29.588 82.8012 29.3533 82.8012 29.076C82.8012 28.7987 82.6892 28.5693 82.4652 28.388C82.2412 28.2067 81.9105 28.0733 81.4732 27.988C81.0359 27.892 80.4972 27.844 79.8572 27.844ZM75.9052 18.58H77.6332V19.524C77.6332 20.4627 77.4839 21.3587 77.1852 22.212C76.8865 23.0653 76.4279 23.8173 75.8092 24.468C75.2012 25.108 74.4225 25.588 73.4732 25.908L72.4012 24.228C73.0092 24.0253 73.5319 23.7533 73.9692 23.412C74.4172 23.0707 74.7799 22.692 75.0572 22.276C75.3452 21.8493 75.5585 21.4013 75.6972 20.932C75.8359 20.4627 75.9052 19.9933 75.9052 19.524V18.58ZM76.3532 18.58H78.0492V19.508C78.0492 20.0947 78.1665 20.6707 78.4012 21.236C78.6359 21.8013 78.9985 22.3133 79.4892 22.772C79.9905 23.2307 80.6305 23.5933 81.4092 23.86L80.3692 25.524C79.4519 25.2147 78.6945 24.7613 78.0972 24.164C77.5105 23.556 77.0732 22.852 76.7852 22.052C76.4972 21.2413 76.3532 20.3933 76.3532 19.508V18.58ZM72.9772 18.004H80.9452V19.684H72.9772V18.004ZM87.1999 28.468H100.624V30.196H87.1999V28.468ZM92.8319 25.3H94.9439V28.884H92.8319V25.3ZM88.6079 18.036H90.7359V20.324H97.0399V18.036H99.1519V25.748H88.6079V18.036ZM90.7359 21.988V24.052H97.0399V21.988H90.7359Z" fill="#4F4F4F"/>
<rect x="115.979" width="134.021" height="48" rx="24" fill="#FF6700"/>
<path d="M162.354 17.092H164.482V31.908H162.354V17.092ZM157.986 18.628H160.082C160.082 19.7587 159.97 20.8413 159.746 21.876C159.532 22.9 159.17 23.8653 158.658 24.772C158.156 25.6787 157.463 26.5213 156.578 27.3C155.703 28.068 154.61 28.772 153.298 29.412L152.178 27.732C153.607 27.0387 154.743 26.276 155.586 25.444C156.439 24.6013 157.052 23.652 157.426 22.596C157.799 21.5293 157.986 20.3347 157.986 19.012V18.628ZM152.978 18.628H158.978V20.324H152.978V18.628ZM166.864 25.044H180.272V26.724H166.864V25.044ZM168.496 17.38H178.64V21.396H170.624V22.996H168.528V19.892H176.544V18.996H168.496V17.38ZM168.528 22.372H178.928V23.988H168.528V22.372ZM172.512 23.156H174.624V25.956H172.512V23.156ZM168.336 27.556H178.736V31.876H176.608V29.252H168.336V27.556ZM185.208 28.468H198.632V30.196H185.208V28.468ZM190.84 25.3H192.952V28.884H190.84V25.3ZM186.616 18.036H188.744V20.324H195.048V18.036H197.16V25.748H186.616V18.036ZM188.744 21.988V24.052H195.048V21.988H188.744ZM210.135 17.092H212.263V31.908H210.135V17.092ZM205.767 18.628H207.863C207.863 19.7587 207.751 20.8413 207.527 21.876C207.314 22.9 206.951 23.8653 206.439 24.772C205.938 25.6787 205.244 26.5213 204.359 27.3C203.484 28.068 202.391 28.772 201.079 29.412L199.959 27.732C201.388 27.0387 202.524 26.276 203.367 25.444C204.22 24.6013 204.834 23.652 205.207 22.596C205.58 21.5293 205.767 20.3347 205.767 19.012V18.628ZM200.759 18.628H206.759V20.324H200.759V18.628Z" fill="white"/>
</svg>