<svg xmlns="http://www.w3.org/2000/svg" width="250" height="48" viewBox="0 0 250 48" fill="none">
<rect x="82.4741" width="167.526" height="48" rx="24" fill="#E4E4E4"/>
<path d="M159.101 17.092H161.229V31.908H159.101V17.092ZM154.733 18.628H156.829C156.829 19.7587 156.717 20.8413 156.493 21.876C156.279 22.9 155.917 23.8653 155.405 24.772C154.903 25.6787 154.21 26.5213 153.325 27.3C152.45 28.068 151.357 28.772 150.045 29.412L148.925 27.732C150.354 27.0387 151.49 26.276 152.333 25.444C153.186 24.6013 153.799 23.652 154.173 22.596C154.546 21.5293 154.733 20.3347 154.733 19.012V18.628ZM149.725 18.628H155.725V20.324H149.725V18.628ZM163.612 25.044H177.02V26.724H163.612V25.044ZM165.244 17.38H175.388V21.396H167.372V22.996H165.276V19.892H173.292V18.996H165.244V17.38ZM165.276 22.372H175.676V23.988H165.276V22.372ZM169.26 23.156H171.372V25.956H169.26V23.156ZM165.084 27.556H175.484V31.876H173.356V29.252H165.084V27.556ZM181.955 28.468H195.379V30.196H181.955V28.468ZM187.587 25.3H189.699V28.884H187.587V25.3ZM183.363 18.036H185.491V20.324H191.795V18.036H193.907V25.748H183.363V18.036ZM185.491 21.988V24.052H191.795V21.988H185.491ZM206.882 17.092H209.01V31.908H206.882V17.092ZM202.514 18.628H204.61C204.61 19.7587 204.498 20.8413 204.274 21.876C204.061 22.9 203.698 23.8653 203.186 24.772C202.685 25.6787 201.991 26.5213 201.106 27.3C200.231 28.068 199.138 28.772 197.826 29.412L196.706 27.732C198.135 27.0387 199.271 26.276 200.114 25.444C200.967 24.6013 201.581 23.652 201.954 22.596C202.327 21.5293 202.514 20.3347 202.514 19.012V18.628ZM197.506 18.628H203.506V20.324H197.506V18.628Z" fill="#4F4F4F"/>
<rect width="132.732" height="48" rx="24" fill="#FF6700"/>
<path d="M46.5782 22.692H49.1862V24.452H46.5782V22.692ZM44.9782 17.076H47.1222V31.892H44.9782V17.076ZM35.9702 18.5H38.0822V27.716H35.9702V18.5ZM35.9702 26.516H37.2342C38.2902 26.516 39.3889 26.4733 40.5302 26.388C41.6715 26.3027 42.8395 26.1427 44.0342 25.908L44.2582 27.636C43.0209 27.892 41.8155 28.068 40.6422 28.164C39.4689 28.2493 38.3329 28.292 37.2342 28.292H35.9702V26.516ZM55.009 18.084C55.777 18.084 56.4703 18.2387 57.089 18.548C57.7076 18.8573 58.193 19.2893 58.545 19.844C58.897 20.388 59.073 21.0173 59.073 21.732C59.073 22.436 58.897 23.0653 58.545 23.62C58.193 24.1747 57.7076 24.6067 57.089 24.916C56.4703 25.2253 55.777 25.38 55.009 25.38C54.2303 25.38 53.5316 25.2253 52.913 24.916C52.2943 24.6067 51.8036 24.1747 51.441 23.62C51.089 23.0653 50.913 22.436 50.913 21.732C50.913 21.0173 51.089 20.388 51.441 19.844C51.8036 19.2893 52.2943 18.8573 52.913 18.548C53.5316 18.2387 54.2303 18.084 55.009 18.084ZM55.009 19.908C54.625 19.908 54.2783 19.9827 53.969 20.132C53.6703 20.2707 53.4303 20.4787 53.249 20.756C53.0783 21.0227 52.993 21.348 52.993 21.732C52.993 22.116 53.0783 22.4467 53.249 22.724C53.4303 23.0013 53.6703 23.2147 53.969 23.364C54.2783 23.5027 54.625 23.572 55.009 23.572C55.3823 23.572 55.7183 23.5027 56.017 23.364C56.3156 23.2147 56.5503 23.0013 56.721 22.724C56.9023 22.4467 56.993 22.116 56.993 21.732C56.993 21.348 56.9023 21.0227 56.721 20.756C56.5503 20.4787 56.3156 20.2707 56.017 20.132C55.7183 19.9827 55.3823 19.908 55.009 19.908ZM60.465 17.076H62.593V31.94H60.465V17.076ZM50.545 28.948L50.305 27.22C51.169 27.22 52.1236 27.2147 53.169 27.204C54.225 27.1827 55.3076 27.14 56.417 27.076C57.537 27.0013 58.6196 26.8893 59.665 26.74L59.809 28.276C58.7423 28.4893 57.6596 28.644 56.561 28.74C55.4623 28.8253 54.401 28.884 53.377 28.916C52.353 28.9373 51.409 28.948 50.545 28.948ZM76.6167 20.676H79.4327V22.404H76.6167V20.676ZM78.8407 17.108H80.9847V25.908H78.8407V17.108ZM75.9607 26.228C77.006 26.228 77.9074 26.34 78.6647 26.564C79.422 26.788 80.0034 27.1133 80.4087 27.54C80.8247 27.9667 81.0327 28.4787 81.0327 29.076C81.0327 29.9933 80.5794 30.6973 79.6727 31.188C78.766 31.6893 77.5287 31.94 75.9607 31.94C74.3927 31.94 73.1554 31.6893 72.2487 31.188C71.342 30.6973 70.8887 29.9933 70.8887 29.076C70.8887 28.4787 71.0914 27.9667 71.4967 27.54C71.9127 27.1133 72.4994 26.788 73.2567 26.564C74.014 26.34 74.9154 26.228 75.9607 26.228ZM75.9607 27.844C75.3207 27.844 74.782 27.892 74.3447 27.988C73.9074 28.0733 73.5714 28.2067 73.3367 28.388C73.1127 28.5693 73.0007 28.7987 73.0007 29.076C73.0007 29.3533 73.1127 29.588 73.3367 29.78C73.5714 29.9613 73.9074 30.1 74.3447 30.196C74.782 30.2813 75.3207 30.324 75.9607 30.324C76.6007 30.324 77.1394 30.2813 77.5767 30.196C78.014 30.1 78.3447 29.9613 78.5687 29.78C78.7927 29.588 78.9047 29.3533 78.9047 29.076C78.9047 28.7987 78.7927 28.5693 78.5687 28.388C78.3447 28.2067 78.014 28.0733 77.5767 27.988C77.1394 27.892 76.6007 27.844 75.9607 27.844ZM72.0087 18.58H73.7367V19.524C73.7367 20.4627 73.5874 21.3587 73.2887 22.212C72.99 23.0653 72.5314 23.8173 71.9127 24.468C71.3047 25.108 70.526 25.588 69.5767 25.908L68.5047 24.228C69.1127 24.0253 69.6354 23.7533 70.0727 23.412C70.5207 23.0707 70.8834 22.692 71.1607 22.276C71.4487 21.8493 71.662 21.4013 71.8007 20.932C71.9394 20.4627 72.0087 19.9933 72.0087 19.524V18.58ZM72.4567 18.58H74.1527V19.508C74.1527 20.0947 74.27 20.6707 74.5047 21.236C74.7394 21.8013 75.102 22.3133 75.5927 22.772C76.094 23.2307 76.734 23.5933 77.5127 23.86L76.4727 25.524C75.5554 25.2147 74.798 24.7613 74.2007 24.164C73.614 23.556 73.1767 22.852 72.8887 22.052C72.6007 21.2413 72.4567 20.3933 72.4567 19.508V18.58ZM69.0807 18.004H77.0487V19.684H69.0807V18.004ZM83.3035 28.468H96.7275V30.196H83.3035V28.468ZM88.9355 25.3H91.0475V28.884H88.9355V25.3ZM84.7115 18.036H86.8395V20.324H93.1435V18.036H95.2555V25.748H84.7115V18.036ZM86.8395 21.988V24.052H93.1435V21.988H86.8395Z" fill="white"/>
</svg>