<svg width="30" height="29" viewBox="0 0 30 29" fill="none" xmlns="http://www.w3.org/2000/svg">
<path d="M15 3.64575H15.001C16.3424 3.64546 17.6463 4.06116 18.7217 4.82837C19.7969 5.59546 20.5865 6.67286 20.9775 7.89966C21.3683 9.12592 21.3415 10.4404 20.9023 11.6516C20.4629 12.8634 19.6316 13.9118 18.5264 14.6389L17.4766 15.3293L18.6611 15.7502C20.6563 16.4577 22.3841 17.7244 23.623 19.385C24.8618 21.0454 25.556 23.0242 25.6201 25.0657L25.6211 25.0793C25.6229 25.1137 25.6179 25.1486 25.6055 25.1819C25.593 25.2153 25.5729 25.2473 25.5459 25.2756C25.5188 25.304 25.4845 25.3277 25.4453 25.345C25.4061 25.3622 25.3628 25.372 25.3184 25.3733C25.274 25.3745 25.2299 25.3679 25.1895 25.3528C25.149 25.3377 25.1141 25.3144 25.085 25.2874C25.0559 25.2603 25.0332 25.2295 25.0186 25.1965C25.004 25.1638 24.9964 25.1292 24.9961 25.095V25.0793C24.9162 22.5559 23.8228 20.1664 21.9551 18.4153C20.088 16.6648 17.5937 15.6887 15.001 15.6887C12.4082 15.6887 9.91303 16.6647 8.0459 18.4153C6.17841 20.1664 5.08572 22.556 5.00586 25.0793V25.0803C5.00368 25.1479 4.97343 25.2166 4.91504 25.2698C4.85575 25.3238 4.77228 25.3564 4.68262 25.3538C4.59326 25.3511 4.51301 25.3143 4.45801 25.2581C4.4173 25.2163 4.39263 25.1662 4.38379 25.1155L4.37988 25.0647C4.44424 23.0234 5.13916 21.0452 6.37793 19.385C7.61684 17.7246 9.34388 16.4576 11.3389 15.7502L12.5244 15.3293L11.4736 14.6389C10.3684 13.9118 9.53711 12.8634 9.09766 11.6516C8.65853 10.4404 8.63263 9.12589 9.02344 7.89966C9.41447 6.67301 10.2033 5.59544 11.2783 4.82837C12.3538 4.06108 13.6585 3.64538 15 3.64575ZM15 4.20825C13.5151 4.20833 12.0866 4.77807 11.0303 5.79907C9.97324 6.82087 9.37509 8.21177 9.375 9.66626C9.375 11.1208 9.97325 12.5116 11.0303 13.5334C12.0866 14.5546 13.515 15.1252 15 15.1252C16.4851 15.1252 17.9143 14.5546 18.9707 13.5334C20.0276 12.5116 20.625 11.1207 20.625 9.66626C20.6249 8.21178 20.0277 6.82087 18.9707 5.79907C17.9143 4.77789 16.4851 4.20825 15 4.20825Z" fill="#001D3D" stroke="#001D3D" stroke-width="1.25"/>
</svg>
