<svg width="20" height="20" viewBox="0 0 20 20" fill="none" xmlns="http://www.w3.org/2000/svg">
<path d="M8.33343 14.7919C8.25132 14.7923 8.16995 14.7762 8.09411 14.7448C8.01826 14.7133 7.94947 14.667 7.89177 14.6085C7.77473 14.4913 7.70898 14.3325 7.70898 14.1669C7.70898 14.0012 7.77473 13.8424 7.89177 13.7252L11.6168 10.0002L7.89177 6.2752C7.78137 6.15672 7.72126 6.00001 7.72412 5.8381C7.72698 5.67618 7.79257 5.52169 7.90708 5.40718C8.02159 5.29267 8.17608 5.22708 8.338 5.22422C8.49992 5.22136 8.65662 5.28146 8.7751 5.39186L12.9418 9.55853C13.0588 9.67572 13.1246 9.83457 13.1246 10.0002C13.1246 10.1658 13.0588 10.3247 12.9418 10.4419L8.7751 14.6085C8.7174 14.667 8.64861 14.7133 8.57276 14.7448C8.49692 14.7762 8.41555 14.7923 8.33343 14.7919Z" fill="#4F4F4F"/>
</svg>
