<svg width="25" height="25" viewBox="0 0 25 25" fill="none" xmlns="http://www.w3.org/2000/svg">
<path d="M20.8335 20.8333L16.6148 16.6145M16.6148 16.6145C17.2919 15.9374 17.829 15.1336 18.1955 14.2488C18.562 13.3641 18.7506 12.4159 18.7506 11.4583C18.7506 10.5007 18.562 9.55247 18.1955 8.66776C17.829 7.78305 17.2919 6.97918 16.6148 6.30205C15.9377 5.62492 15.1338 5.08779 14.2491 4.72133C13.3644 4.35487 12.4161 4.16626 11.4585 4.16626C10.5009 4.16626 9.55271 4.35487 8.668 4.72133C7.78329 5.08779 6.97942 5.62492 6.30229 6.30205C4.93477 7.66957 4.1665 9.52433 4.1665 11.4583C4.1665 13.3923 4.93477 15.247 6.30229 16.6145C7.66982 17.9821 9.52457 18.7503 11.4585 18.7503C13.3925 18.7503 15.2473 17.9821 16.6148 16.6145Z" stroke="#A3A3A3" stroke-width="2.5" stroke-linecap="round" stroke-linejoin="round"/>
</svg>
