<svg width="34" height="34" viewBox="0 0 34 34" fill="none" xmlns="http://www.w3.org/2000/svg">
<path d="M17.0002 2.8335V5.66683M12.7502 17.0002V29.7502M21.2502 17.0002V29.7502M7.0835 22.6668L12.7502 19.8335M21.2502 19.8335L26.9168 22.6668M12.7502 25.5002H21.2502M14.1668 11.3335V11.3477M19.8335 11.3335V11.3477M8.50016 8.50016C8.50016 7.74872 8.79867 7.02805 9.33003 6.49669C9.86138 5.96534 10.582 5.66683 11.3335 5.66683H22.6668C23.4183 5.66683 24.1389 5.96534 24.6703 6.49669C25.2017 7.02805 25.5002 7.74872 25.5002 8.50016V14.1668C25.5002 14.9183 25.2017 15.6389 24.6703 16.1703C24.1389 16.7017 23.4183 17.0002 22.6668 17.0002H11.3335C10.582 17.0002 9.86138 16.7017 9.33003 16.1703C8.79867 15.6389 8.50016 14.9183 8.50016 14.1668V8.50016Z" stroke="#003566" stroke-width="2" stroke-linecap="round" stroke-linejoin="round"/>
</svg>
